<mxfile host="app.diagrams.net" modified="2024-01-28T14:42:02.413Z" agent="Mozilla/5.0 (Windows NT 10.0; Win64; x64) AppleWebKit/537.36 (KHTML, like Gecko) Chrome/121.0.0.0 Safari/537.36" etag="Vz3Vit41NdohQm5jUop0" version="23.0.2" type="device">
  <diagram name="Seite-1" id="9J0YIhfds9bGNUfCk-rM">
    <mxGraphModel dx="3138" dy="868" grid="1" gridSize="10" guides="1" tooltips="1" connect="1" arrows="1" fold="1" page="1" pageScale="1" pageWidth="1169" pageHeight="827" math="0" shadow="0">
      <root>
        <mxCell id="0" />
        <mxCell id="1" parent="0" />
        <mxCell id="_Up0AVNkwUt3AImupUYB-1" value="«Component»&lt;br&gt;&lt;b&gt;Database&lt;/b&gt;" style="html=1;dropTarget=0;whiteSpace=wrap;" parent="1" vertex="1">
          <mxGeometry x="-10" y="470" width="180" height="90" as="geometry" />
        </mxCell>
        <mxCell id="_Up0AVNkwUt3AImupUYB-2" value="" style="shape=module;jettyWidth=8;jettyHeight=4;" parent="_Up0AVNkwUt3AImupUYB-1" vertex="1">
          <mxGeometry x="1" width="20" height="20" relative="1" as="geometry">
            <mxPoint x="-27" y="7" as="offset" />
          </mxGeometry>
        </mxCell>
        <mxCell id="_Up0AVNkwUt3AImupUYB-3" value="&amp;lt;&amp;lt;subsystem&amp;gt;&amp;gt; Data access layer" style="shape=umlFrame;whiteSpace=wrap;html=1;pointerEvents=0;width=200;height=30;" parent="1" vertex="1">
          <mxGeometry x="-160" y="335" width="480" height="360" as="geometry" />
        </mxCell>
        <mxCell id="_Up0AVNkwUt3AImupUYB-4" value="«Component»&lt;br&gt;&lt;b&gt;WeatherApi&lt;/b&gt;" style="html=1;dropTarget=0;whiteSpace=wrap;" parent="1" vertex="1">
          <mxGeometry x="700" y="190" width="180" height="90" as="geometry" />
        </mxCell>
        <mxCell id="_Up0AVNkwUt3AImupUYB-5" value="" style="shape=module;jettyWidth=8;jettyHeight=4;" parent="_Up0AVNkwUt3AImupUYB-4" vertex="1">
          <mxGeometry x="1" width="20" height="20" relative="1" as="geometry">
            <mxPoint x="-27" y="7" as="offset" />
          </mxGeometry>
        </mxCell>
        <mxCell id="_Up0AVNkwUt3AImupUYB-6" value="&amp;lt;&amp;lt;subsystem&amp;gt;&amp;gt; Business logic" style="shape=umlFrame;whiteSpace=wrap;html=1;pointerEvents=0;width=200;height=30;" parent="1" vertex="1">
          <mxGeometry x="520" y="150" width="890" height="800" as="geometry" />
        </mxCell>
        <mxCell id="_Up0AVNkwUt3AImupUYB-7" value="«Component»&lt;br&gt;&lt;b&gt;LocationApi&lt;/b&gt;" style="html=1;dropTarget=0;whiteSpace=wrap;" parent="1" vertex="1">
          <mxGeometry x="565" y="340" width="180" height="90" as="geometry" />
        </mxCell>
        <mxCell id="_Up0AVNkwUt3AImupUYB-8" value="" style="shape=module;jettyWidth=8;jettyHeight=4;" parent="_Up0AVNkwUt3AImupUYB-7" vertex="1">
          <mxGeometry x="1" width="20" height="20" relative="1" as="geometry">
            <mxPoint x="-27" y="7" as="offset" />
          </mxGeometry>
        </mxCell>
        <mxCell id="_Up0AVNkwUt3AImupUYB-9" value="«Component»&lt;br&gt;&lt;b&gt;User&lt;/b&gt;" style="html=1;dropTarget=0;whiteSpace=wrap;" parent="1" vertex="1">
          <mxGeometry x="610" y="505" width="180" height="90" as="geometry" />
        </mxCell>
        <mxCell id="_Up0AVNkwUt3AImupUYB-10" value="" style="shape=module;jettyWidth=8;jettyHeight=4;" parent="_Up0AVNkwUt3AImupUYB-9" vertex="1">
          <mxGeometry x="1" width="20" height="20" relative="1" as="geometry">
            <mxPoint x="-27" y="7" as="offset" />
          </mxGeometry>
        </mxCell>
        <mxCell id="_Up0AVNkwUt3AImupUYB-11" value="«Component»&lt;br&gt;&lt;b&gt;AuditLog&lt;/b&gt;" style="html=1;dropTarget=0;whiteSpace=wrap;" parent="1" vertex="1">
          <mxGeometry x="920" y="450" width="180" height="90" as="geometry" />
        </mxCell>
        <mxCell id="_Up0AVNkwUt3AImupUYB-12" value="" style="shape=module;jettyWidth=8;jettyHeight=4;" parent="_Up0AVNkwUt3AImupUYB-11" vertex="1">
          <mxGeometry x="1" width="20" height="20" relative="1" as="geometry">
            <mxPoint x="-27" y="7" as="offset" />
          </mxGeometry>
        </mxCell>
        <mxCell id="_Up0AVNkwUt3AImupUYB-13" value="«Component»&lt;br&gt;&lt;b&gt;Email&lt;/b&gt;" style="html=1;dropTarget=0;whiteSpace=wrap;" parent="1" vertex="1">
          <mxGeometry x="940" y="810" width="180" height="90" as="geometry" />
        </mxCell>
        <mxCell id="_Up0AVNkwUt3AImupUYB-14" value="" style="shape=module;jettyWidth=8;jettyHeight=4;" parent="_Up0AVNkwUt3AImupUYB-13" vertex="1">
          <mxGeometry x="1" width="20" height="20" relative="1" as="geometry">
            <mxPoint x="-27" y="7" as="offset" />
          </mxGeometry>
        </mxCell>
        <mxCell id="_Up0AVNkwUt3AImupUYB-15" value="«Component»&lt;br&gt;&lt;b&gt;Invoice&lt;/b&gt;" style="html=1;dropTarget=0;whiteSpace=wrap;" parent="1" vertex="1">
          <mxGeometry x="600" y="800" width="180" height="90" as="geometry" />
        </mxCell>
        <mxCell id="_Up0AVNkwUt3AImupUYB-16" value="" style="shape=module;jettyWidth=8;jettyHeight=4;" parent="_Up0AVNkwUt3AImupUYB-15" vertex="1">
          <mxGeometry x="1" width="20" height="20" relative="1" as="geometry">
            <mxPoint x="-27" y="7" as="offset" />
          </mxGeometry>
        </mxCell>
        <mxCell id="_Up0AVNkwUt3AImupUYB-17" value="&amp;lt;&amp;lt;subsystem&amp;gt;&amp;gt; WebApp" style="shape=umlFrame;whiteSpace=wrap;html=1;pointerEvents=0;width=200;height=30;" parent="1" vertex="1">
          <mxGeometry x="1570" y="350" width="560" height="490" as="geometry" />
        </mxCell>
        <mxCell id="_Up0AVNkwUt3AImupUYB-18" value="" style="rounded=0;orthogonalLoop=1;jettySize=auto;html=1;endArrow=halfCircle;endFill=0;endSize=6;strokeWidth=1;sketch=0;exitX=0;exitY=0;exitDx=0;exitDy=0;entryX=1.272;entryY=0.787;entryDx=0;entryDy=0;entryPerimeter=0;" parent="1" source="_Up0AVNkwUt3AImupUYB-11" target="_Up0AVNkwUt3AImupUYB-20" edge="1">
          <mxGeometry relative="1" as="geometry">
            <mxPoint x="850" y="445" as="sourcePoint" />
            <mxPoint x="930" y="450" as="targetPoint" />
          </mxGeometry>
        </mxCell>
        <mxCell id="_Up0AVNkwUt3AImupUYB-19" value="" style="rounded=0;orthogonalLoop=1;jettySize=auto;html=1;endArrow=oval;endFill=0;sketch=0;sourcePerimeterSpacing=0;targetPerimeterSpacing=0;endSize=10;exitX=1;exitY=1;exitDx=0;exitDy=0;entryX=1.272;entryY=-0.021;entryDx=0;entryDy=0;entryPerimeter=0;" parent="1" source="_Up0AVNkwUt3AImupUYB-7" target="_Up0AVNkwUt3AImupUYB-20" edge="1">
          <mxGeometry relative="1" as="geometry">
            <mxPoint x="810" y="445" as="sourcePoint" />
            <mxPoint x="930" y="450" as="targetPoint" />
          </mxGeometry>
        </mxCell>
        <mxCell id="_Up0AVNkwUt3AImupUYB-20" value="" style="ellipse;whiteSpace=wrap;html=1;align=center;aspect=fixed;fillColor=none;strokeColor=none;resizable=0;perimeter=centerPerimeter;rotatable=0;allowArrows=0;points=[];outlineConnect=1;" parent="1" vertex="1">
          <mxGeometry x="825" y="440" width="10" height="10" as="geometry" />
        </mxCell>
        <mxCell id="_Up0AVNkwUt3AImupUYB-21" value="" style="rounded=0;orthogonalLoop=1;jettySize=auto;html=1;endArrow=halfCircle;endFill=0;endSize=6;strokeWidth=1;sketch=0;exitX=0;exitY=0.25;exitDx=0;exitDy=0;" parent="1" source="_Up0AVNkwUt3AImupUYB-11" edge="1">
          <mxGeometry relative="1" as="geometry">
            <mxPoint x="1020" y="480" as="sourcePoint" />
            <mxPoint x="870" y="510" as="targetPoint" />
          </mxGeometry>
        </mxCell>
        <mxCell id="_Up0AVNkwUt3AImupUYB-22" value="" style="rounded=0;orthogonalLoop=1;jettySize=auto;html=1;endArrow=oval;endFill=0;sketch=0;sourcePerimeterSpacing=0;targetPerimeterSpacing=0;endSize=10;exitX=1;exitY=0.25;exitDx=0;exitDy=0;" parent="1" source="_Up0AVNkwUt3AImupUYB-9" edge="1">
          <mxGeometry relative="1" as="geometry">
            <mxPoint x="880" y="440" as="sourcePoint" />
            <mxPoint x="870" y="510" as="targetPoint" />
          </mxGeometry>
        </mxCell>
        <mxCell id="_Up0AVNkwUt3AImupUYB-23" value="" style="rounded=0;orthogonalLoop=1;jettySize=auto;html=1;endArrow=halfCircle;endFill=0;endSize=6;strokeWidth=1;sketch=0;exitX=0.5;exitY=1;exitDx=0;exitDy=0;" parent="1" source="_Up0AVNkwUt3AImupUYB-11" edge="1">
          <mxGeometry relative="1" as="geometry">
            <mxPoint x="1030" y="490" as="sourcePoint" />
            <mxPoint x="1020" y="680" as="targetPoint" />
          </mxGeometry>
        </mxCell>
        <mxCell id="_Up0AVNkwUt3AImupUYB-24" value="" style="rounded=0;orthogonalLoop=1;jettySize=auto;html=1;endArrow=oval;endFill=0;sketch=0;sourcePerimeterSpacing=0;targetPerimeterSpacing=0;endSize=10;exitX=0.5;exitY=0;exitDx=0;exitDy=0;" parent="1" source="_Up0AVNkwUt3AImupUYB-13" edge="1">
          <mxGeometry relative="1" as="geometry">
            <mxPoint x="890" y="450" as="sourcePoint" />
            <mxPoint x="1020" y="680" as="targetPoint" />
          </mxGeometry>
        </mxCell>
        <mxCell id="_Up0AVNkwUt3AImupUYB-25" value="" style="rounded=0;orthogonalLoop=1;jettySize=auto;html=1;endArrow=halfCircle;endFill=0;endSize=6;strokeWidth=1;sketch=0;exitX=0.5;exitY=1;exitDx=0;exitDy=0;" parent="1" source="_Up0AVNkwUt3AImupUYB-11" edge="1">
          <mxGeometry relative="1" as="geometry">
            <mxPoint x="1040" y="500" as="sourcePoint" />
            <mxPoint x="880" y="680" as="targetPoint" />
          </mxGeometry>
        </mxCell>
        <mxCell id="_Up0AVNkwUt3AImupUYB-26" value="" style="rounded=0;orthogonalLoop=1;jettySize=auto;html=1;endArrow=oval;endFill=0;sketch=0;sourcePerimeterSpacing=0;targetPerimeterSpacing=0;endSize=10;exitX=1;exitY=0;exitDx=0;exitDy=0;" parent="1" source="_Up0AVNkwUt3AImupUYB-15" edge="1">
          <mxGeometry relative="1" as="geometry">
            <mxPoint x="900" y="460" as="sourcePoint" />
            <mxPoint x="880" y="680" as="targetPoint" />
          </mxGeometry>
        </mxCell>
        <mxCell id="_Up0AVNkwUt3AImupUYB-28" value="" style="rounded=0;orthogonalLoop=1;jettySize=auto;html=1;endArrow=oval;endFill=0;sketch=0;sourcePerimeterSpacing=0;targetPerimeterSpacing=0;endSize=10;exitX=0.5;exitY=0;exitDx=0;exitDy=0;entryX=0.576;entryY=0.989;entryDx=0;entryDy=0;entryPerimeter=0;" parent="1" target="_Up0AVNkwUt3AImupUYB-35" edge="1">
          <mxGeometry relative="1" as="geometry">
            <mxPoint x="791.0000000000005" y="190" as="sourcePoint" />
            <mxPoint x="790" y="90" as="targetPoint" />
          </mxGeometry>
        </mxCell>
        <mxCell id="_Up0AVNkwUt3AImupUYB-29" value="" style="ellipse;whiteSpace=wrap;html=1;align=center;aspect=fixed;fillColor=none;strokeColor=none;resizable=0;perimeter=centerPerimeter;rotatable=0;allowArrows=0;points=[];outlineConnect=1;" parent="1" vertex="1">
          <mxGeometry x="825" y="340" width="10" height="10" as="geometry" />
        </mxCell>
        <mxCell id="_Up0AVNkwUt3AImupUYB-30" value="" style="rounded=0;orthogonalLoop=1;jettySize=auto;html=1;endArrow=oval;endFill=0;sketch=0;sourcePerimeterSpacing=0;targetPerimeterSpacing=0;endSize=10;exitX=0;exitY=0.5;exitDx=0;exitDy=0;" parent="1" source="_Up0AVNkwUt3AImupUYB-7" edge="1">
          <mxGeometry relative="1" as="geometry">
            <mxPoint x="790" y="200" as="sourcePoint" />
            <mxPoint x="460" y="385" as="targetPoint" />
          </mxGeometry>
        </mxCell>
        <mxCell id="_Up0AVNkwUt3AImupUYB-32" value="" style="rounded=0;orthogonalLoop=1;jettySize=auto;html=1;endArrow=halfCircle;endFill=0;endSize=6;strokeWidth=1;sketch=0;exitX=1;exitY=0.5;exitDx=0;exitDy=0;" parent="1" source="_Up0AVNkwUt3AImupUYB-1" edge="1">
          <mxGeometry relative="1" as="geometry">
            <mxPoint x="1020" y="480" as="sourcePoint" />
            <mxPoint x="490" y="540" as="targetPoint" />
          </mxGeometry>
        </mxCell>
        <mxCell id="_Up0AVNkwUt3AImupUYB-33" value="" style="rounded=0;orthogonalLoop=1;jettySize=auto;html=1;endArrow=halfCircle;endFill=0;endSize=6;strokeWidth=1;sketch=0;exitX=1;exitY=0.75;exitDx=0;exitDy=0;" parent="1" source="_Up0AVNkwUt3AImupUYB-1" edge="1">
          <mxGeometry relative="1" as="geometry">
            <mxPoint x="280" y="525" as="sourcePoint" />
            <mxPoint x="490" y="670" as="targetPoint" />
          </mxGeometry>
        </mxCell>
        <mxCell id="_Up0AVNkwUt3AImupUYB-34" value="" style="rounded=0;orthogonalLoop=1;jettySize=auto;html=1;endArrow=oval;endFill=0;sketch=0;sourcePerimeterSpacing=0;targetPerimeterSpacing=0;endSize=10;exitX=0;exitY=0.5;exitDx=0;exitDy=0;" parent="1" source="_Up0AVNkwUt3AImupUYB-15" edge="1">
          <mxGeometry relative="1" as="geometry">
            <mxPoint x="1150" y="395" as="sourcePoint" />
            <mxPoint x="490" y="670" as="targetPoint" />
          </mxGeometry>
        </mxCell>
        <mxCell id="_Up0AVNkwUt3AImupUYB-35" value="OpenweatherApi" style="text;html=1;align=center;verticalAlign=middle;resizable=0;points=[];autosize=1;strokeColor=none;fillColor=none;" parent="1" vertex="1">
          <mxGeometry x="729" y="58" width="110" height="30" as="geometry" />
        </mxCell>
        <mxCell id="_Up0AVNkwUt3AImupUYB-36" value="GeocodingApi" style="text;html=1;align=center;verticalAlign=middle;resizable=0;points=[];autosize=1;strokeColor=none;fillColor=none;" parent="1" vertex="1">
          <mxGeometry x="400" y="350" width="100" height="30" as="geometry" />
        </mxCell>
        <mxCell id="_Up0AVNkwUt3AImupUYB-37" value="" style="rounded=0;orthogonalLoop=1;jettySize=auto;html=1;endArrow=oval;endFill=0;sketch=0;sourcePerimeterSpacing=0;targetPerimeterSpacing=0;endSize=10;exitX=1;exitY=1;exitDx=0;exitDy=0;" parent="1" source="_Up0AVNkwUt3AImupUYB-9" edge="1">
          <mxGeometry relative="1" as="geometry">
            <mxPoint x="1150" y="440" as="sourcePoint" />
            <mxPoint x="840" y="670" as="targetPoint" />
          </mxGeometry>
        </mxCell>
        <mxCell id="_Up0AVNkwUt3AImupUYB-50" value="" style="rounded=0;orthogonalLoop=1;jettySize=auto;html=1;endArrow=halfCircle;endFill=0;endSize=6;strokeWidth=1;sketch=0;exitX=0;exitY=0.5;exitDx=0;exitDy=0;" parent="1" source="_Up0AVNkwUt3AImupUYB-13" edge="1">
          <mxGeometry relative="1" as="geometry">
            <mxPoint x="1020" y="480" as="sourcePoint" />
            <mxPoint x="840" y="670" as="targetPoint" />
          </mxGeometry>
        </mxCell>
        <mxCell id="_Up0AVNkwUt3AImupUYB-51" value="Use" style="endArrow=open;endSize=12;dashed=1;html=1;rounded=0;exitX=1;exitY=0;exitDx=0;exitDy=0;entryX=0.5;entryY=1;entryDx=0;entryDy=0;" parent="1" source="_Up0AVNkwUt3AImupUYB-9" target="_Up0AVNkwUt3AImupUYB-4" edge="1">
          <mxGeometry width="160" relative="1" as="geometry">
            <mxPoint x="1100" y="470" as="sourcePoint" />
            <mxPoint x="1260" y="470" as="targetPoint" />
          </mxGeometry>
        </mxCell>
        <mxCell id="_Up0AVNkwUt3AImupUYB-54" value="Use" style="endArrow=open;endSize=12;dashed=1;html=1;rounded=0;exitX=0.5;exitY=0;exitDx=0;exitDy=0;entryX=0.75;entryY=1;entryDx=0;entryDy=0;" parent="1" source="_Up0AVNkwUt3AImupUYB-9" target="_Up0AVNkwUt3AImupUYB-7" edge="1">
          <mxGeometry width="160" relative="1" as="geometry">
            <mxPoint x="620" y="515" as="sourcePoint" />
            <mxPoint x="880" y="245" as="targetPoint" />
          </mxGeometry>
        </mxCell>
        <mxCell id="_Up0AVNkwUt3AImupUYB-55" value="Use" style="endArrow=open;endSize=12;dashed=1;html=1;rounded=0;exitX=0.5;exitY=1;exitDx=0;exitDy=0;entryX=0.5;entryY=0;entryDx=0;entryDy=0;" parent="1" source="_Up0AVNkwUt3AImupUYB-9" target="_Up0AVNkwUt3AImupUYB-15" edge="1">
          <mxGeometry width="160" relative="1" as="geometry">
            <mxPoint x="800" y="515" as="sourcePoint" />
            <mxPoint x="790" y="290" as="targetPoint" />
          </mxGeometry>
        </mxCell>
        <mxCell id="_Up0AVNkwUt3AImupUYB-56" value="«Component»&lt;br&gt;&lt;b&gt;WebApp&lt;/b&gt;" style="html=1;dropTarget=0;whiteSpace=wrap;" parent="1" vertex="1">
          <mxGeometry x="1770" y="550" width="180" height="90" as="geometry" />
        </mxCell>
        <mxCell id="_Up0AVNkwUt3AImupUYB-57" value="" style="shape=module;jettyWidth=8;jettyHeight=4;" parent="_Up0AVNkwUt3AImupUYB-56" vertex="1">
          <mxGeometry x="1" width="20" height="20" relative="1" as="geometry">
            <mxPoint x="-27" y="7" as="offset" />
          </mxGeometry>
        </mxCell>
        <mxCell id="_Up0AVNkwUt3AImupUYB-60" value="" style="rounded=0;orthogonalLoop=1;jettySize=auto;html=1;endArrow=oval;endFill=0;sketch=0;sourcePerimeterSpacing=0;targetPerimeterSpacing=0;endSize=10;exitX=0;exitY=0.5;exitDx=0;exitDy=0;" parent="1" source="_Up0AVNkwUt3AImupUYB-9" edge="1">
          <mxGeometry relative="1" as="geometry">
            <mxPoint x="610" y="550" as="sourcePoint" />
            <mxPoint x="490" y="540" as="targetPoint" />
          </mxGeometry>
        </mxCell>
        <mxCell id="_Up0AVNkwUt3AImupUYB-61" value="" style="rounded=0;orthogonalLoop=1;jettySize=auto;html=1;endArrow=halfCircle;endFill=0;endSize=6;strokeWidth=1;sketch=0;exitX=1;exitY=1;exitDx=0;exitDy=0;" parent="1" source="_Up0AVNkwUt3AImupUYB-9" edge="1">
          <mxGeometry relative="1" as="geometry">
            <mxPoint x="1150" y="525" as="sourcePoint" />
            <mxPoint x="1470" y="550" as="targetPoint" />
          </mxGeometry>
        </mxCell>
        <mxCell id="_Up0AVNkwUt3AImupUYB-62" value="" style="rounded=0;orthogonalLoop=1;jettySize=auto;html=1;endArrow=oval;endFill=0;sketch=0;sourcePerimeterSpacing=0;targetPerimeterSpacing=0;endSize=10;exitX=0;exitY=0.5;exitDx=0;exitDy=0;" parent="1" edge="1">
          <mxGeometry relative="1" as="geometry">
            <mxPoint x="1770" y="595" as="sourcePoint" />
            <mxPoint x="1470" y="550" as="targetPoint" />
          </mxGeometry>
        </mxCell>
      </root>
    </mxGraphModel>
  </diagram>
</mxfile>
